<?xml version="1.0" encoding="UTF-8" standalone="no"?>
<!-- Created with Inkscape (http://www.inkscape.org/) -->

<svg
   width="42.022446mm"
   height="16.366154mm"
   viewBox="0 0 42.022446 16.366154"
   version="1.1"
   id="svg947"
   sodipodi:docname="book-1.svg"
   inkscape:version="1.2.1 (9c6d41e, 2022-07-14)"
   xmlns:inkscape="http://www.inkscape.org/namespaces/inkscape"
   xmlns:sodipodi="http://sodipodi.sourceforge.net/DTD/sodipodi-0.dtd"
   xmlns:xlink="http://www.w3.org/1999/xlink"
   xmlns="http://www.w3.org/2000/svg"
   xmlns:svg="http://www.w3.org/2000/svg">
  <sodipodi:namedview
     id="namedview40156"
     pagecolor="#505050"
     bordercolor="#eeeeee"
     borderopacity="1"
     inkscape:showpageshadow="0"
     inkscape:pageopacity="0"
     inkscape:pagecheckerboard="0"
     inkscape:deskcolor="#505050"
     inkscape:document-units="mm"
     showgrid="false"
     inkscape:zoom="3.8152927"
     inkscape:cx="75.223587"
     inkscape:cy="31.059216"
     inkscape:window-width="1920"
     inkscape:window-height="1015"
     inkscape:window-x="0"
     inkscape:window-y="0"
     inkscape:window-maximized="1"
     inkscape:current-layer="svg947" />
  <defs
     id="defs944">
    <linearGradient
       id="linearGradient40663"
       gradientTransform="matrix(1.285418e-5,0,0,4.5379872e-4,328.72473,25148.036)">
      <stop
         style="stop-color:#84634c;stop-opacity:1;"
         offset="0"
         id="stop40661" />
    </linearGradient>
    <linearGradient
       id="linearGradient9616"
       gradientTransform="matrix(1.285418e-5,0,0,4.5379872e-4,328.72473,25148.036)"
       xlink:href="#linearGradient40663">
      <stop
         style="stop-color:#8c7662;stop-opacity:1;"
         offset="0"
         id="stop9614" />
    </linearGradient>
  </defs>
  <g
     id="g31120"
     transform="matrix(0.03398637,0,0,0.03398637,-70.156643,-43.392848)"
     style="display:inline;opacity:0.99;fill:#84634c;stroke-width:7.78495;fill-opacity:1">
    <path
       id="path31089"
       style="fill:#84634c;stroke-width:7.78495;fill-opacity:1"
       d="m 2324.5993,1525.6754 c 1.2439,-0.2391 3.0439,-0.2301 4,0.02 0.956,0.2503 -0.062,0.446 -2.2617,0.4349 -2.2,-0.011 -2.9823,-0.2158 -1.7383,-0.455 z m 712,0 c 1.2439,-0.2391 3.0439,-0.2301 4,0.02 0.9561,0.2503 -0.062,0.446 -2.2617,0.4349 -2.2,-0.011 -2.9822,-0.2158 -1.7383,-0.455 z m -697.7617,-1.3306 c 38.8148,-5.6521 55.0564,-8.9015 109,-21.8076 54.3562,-13.0047 69.2929,-16.0497 97,-19.7745 15.968,-2.1467 52.2571,-2.4587 63,-0.5417 17.9486,3.2028 34.5082,8.7696 44.3445,14.9072 6.5292,4.0741 5.0984,1.8055 -2.5601,-4.0592 -9.1846,-7.0333 -23.5122,-13.8515 -35.7844,-17.0291 -15.8073,-4.0929 -26.7217,-4.9881 -53.3561,-4.3761 -34.3064,0.7882 -55.1127,3.6523 -125.1439,17.2268 -38.5336,7.4692 -73.4299,13.5494 -76.7579,13.3739 -1.2331,-0.065 0.01,-0.5581 2.7579,-1.0958 16.7816,-3.2809 42.8979,-9.112 77.5,-17.3037 77.6432,-18.3812 111.0333,-23.3513 148.9938,-22.1778 19.9711,0.6174 31.9402,2.5592 45.2501,7.341 7.6424,2.7457 19.8998,8.7239 25.7028,12.5359 4.2718,2.8061 3.1207,0.6273 -2.2091,-4.1814 -7.4042,-6.6803 -20.1838,-13.6275 -31.9572,-17.3724 -19.7547,-6.2835 -26.5549,-7.0839 -59.7804,-7.0355 -41.4914,0.06 -60.0466,2.4319 -140,17.8933 -43.6289,8.437 -51.9361,9.9119 -52.5226,9.3253 -0.2274,-0.2274 3.5096,-1.22 8.3045,-2.2057 4.795,-0.9858 23.5681,-5.3143 41.7181,-9.6191 56.7499,-13.4597 84.4795,-18.9044 115.5,-22.6782 19.885,-2.4192 61.4276,-2.4507 75.0119,-0.057 27.9282,4.9213 47.887,14.4886 62.652,30.0323 l 6.958,7.3249 6.2576,-6.7861 c 10.7257,-11.6315 26.9541,-21.1743 44.8066,-26.3477 13.5248,-3.9194 25.2496,-5.5516 44.3139,-6.169 38.7321,-1.2545 78.2924,4.3054 148,20.8002 16.225,3.8393 37.9567,8.8673 48.2927,11.1734 10.336,2.306 18.348,4.341 17.8044,4.5222 -1.1967,0.3989 -20.2796,-3.053 -57.0971,-10.3283 -35.6698,-7.0486 -63.984,-11.8067 -87,-14.62 -15.1056,-1.8465 -23.7292,-2.2697 -47,-2.307 -18.9865,-0.03 -31.1704,0.3921 -36.5,1.2657 -23.672,3.8803 -44.3051,12.5124 -55.6382,23.2767 -6.3236,6.0063 -6.3348,6.0266 -1.8618,3.3903 22.2494,-13.1133 41.0605,-18.2639 70.0063,-19.1679 38.582,-1.2051 69.7248,3.4431 151.0532,22.545 38.365,9.011 51.6263,11.9889 73.4405,16.4916 3.85,0.7946 6.0768,1.4917 4.9485,1.5489 -3.298,0.1673 -40.0809,-6.2589 -79.0965,-13.8187 -69.539,-13.4741 -88.6514,-16.0663 -123.852,-16.7976 -20.1668,-0.419 -27.2233,-0.197 -36.5,1.1479 -20.7533,3.0089 -42.319,11.9289 -53.693,22.2083 l -4.807,4.3444 8.5,-4.3982 c 28.9198,-14.964 65.4312,-18.0562 118,-9.9934 20.6484,3.1669 39.306,7.1453 83.5905,17.8241 50.1782,12.1 72.4286,16.6372 100.9095,20.5771 16.21,2.2424 10.7494,2.5257 -9.1207,0.4731 -26.222,-2.7087 -41.9998,-5.3613 -108.8793,-18.3047 -53.2122,-10.2983 -75.8455,-13.1071 -105.8717,-13.1385 -27.0481,-0.028 -41.9119,2.4455 -59.9988,9.986 -9.1627,3.8199 -18.5044,11.1507 -22.7595,17.8602 -1.6163,2.5487 -3.2608,4.634 -3.6544,4.634 -0.3936,0 -3.1906,-1.2273 -6.2156,-2.7273 -3.025,-1.5 -8.5072,-3.5091 -12.1826,-4.4646 -8.5554,-2.2243 -16.7158,-1.0031 -27.4914,4.1142 -4.1435,1.9677 -7.7027,3.5777 -7.9095,3.5777 -0.2067,0 -1.2405,-1.6875 -2.2974,-3.75 -5.2405,-10.2274 -20.8644,-20.0175 -39.4827,-24.7405 -14.1585,-3.5916 -23.0613,-4.5095 -43.7372,-4.5095 -31.088,0 -54.1335,3.0442 -120.3992,15.904 -42.6123,8.2695 -60.5595,11.3553 -81.5,14.0129 -16.6954,2.1189 -41.5372,3.8708 -29,2.0452 z m 6.8125,-20.6452 c 0.7219,-0.2889 1.5844,-0.2534 1.9167,0.079 0.3323,0.3323 -0.2584,0.5686 -1.3125,0.5252 -1.165,-0.048 -1.4019,-0.2849 -0.6042,-0.6041 z m 672,0 c 0.7219,-0.2889 1.5844,-0.2534 1.9167,0.079 0.3323,0.3323 -0.2584,0.5686 -1.3125,0.5252 -1.165,-0.048 -1.4019,-0.2849 -0.6042,-0.6041 z m -665.5435,-1.0099 c 0.973,-0.2535 2.323,-0.2369 3,0.037 0.6771,0.2739 -0.119,0.4814 -1.769,0.461 -1.65,-0.02 -2.2039,-0.2445 -1.231,-0.498 z m 658,0 c 0.973,-0.2535 2.323,-0.2369 3,0.037 0.6771,0.2739 -0.119,0.4814 -1.769,0.461 -1.65,-0.02 -2.2039,-0.2445 -1.231,-0.498 z m -8.4565,-20.9901 c 0.7219,-0.2889 1.5844,-0.2534 1.9167,0.079 0.3323,0.3323 -0.2584,0.5686 -1.3125,0.5252 -1.165,-0.048 -1.4019,-0.2849 -0.6042,-0.6041 z m -634.0625,-0.9792 c 0.6875,-0.2774 1.8125,-0.2774 2.5,0 0.6875,0.2774 0.125,0.5044 -1.25,0.5044 -1.375,0 -1.9375,-0.227 -1.25,-0.5044 z m 628,0 c 0.6875,-0.2774 1.8125,-0.2774 2.5,0 0.6875,0.2774 0.125,0.5044 -1.25,0.5044 -1.375,0 -1.9375,-0.227 -1.25,-0.5044 z m -315.3709,-17.501 c -3.8542,-4.3197 -14.849,-11.8917 -24.2119,-16.6744 -27.251,-13.9202 -56.1508,-18.6728 -99.4443,-16.3537 -41.2854,2.2116 -71.4525,6.8678 -127.7229,19.7135 -35.3789,8.0765 -41.441,9.3561 -54.5,11.5039 -11.3247,1.8625 -25.5,2.647 -25.5,1.4111 0,-0.3095 14.483,-22.697 32.1845,-49.75 17.7015,-27.0529 35.9988,-55.0371 40.6608,-62.1871 31.5488,-48.3859 32.8837,-50.2827 35.8095,-50.8841 12.6273,-2.5956 97.4456,-18.1256 107.165,-19.6215 38.9234,-5.9909 73.0924,-4.4638 93.9688,4.1997 8.2953,3.4425 17.8599,10.0991 21.1502,14.7199 l 2.2311,3.1334 5.2981,-5.3834 c 13.8073,-14.0297 34.3029,-20.0056 68.532,-19.982 18.4059,0.013 31.3318,1.0529 48.5,3.903 10.6774,1.7725 105.9283,19.4926 106.1221,19.7425 0.074,0.095 4.3868,6.6975 9.5849,14.6725 5.1982,7.975 29.1031,44.5452 53.1221,81.2671 24.019,36.7219 43.6709,66.9096 43.6709,67.0839 0,0.7889 -15.6179,-0.6396 -26.5,-2.4238 -6.6,-1.0821 -27.975,-5.5286 -47.5,-9.881 -70.2954,-15.6701 -99.8723,-20.1421 -143.2962,-21.6663 -48.8041,-1.713 -87.32,9.0452 -112.8559,31.5228 l -4.5897,4.04 z m -259.3791,-25.7268 c 68.8143,-15.186 93.0066,-18.9505 136.1505,-21.1863 32.8847,-1.7042 61.3314,0.566 82.3793,6.5742 9.6431,2.7526 25.9741,10.1322 31.1535,14.0774 1.7508,1.3337 3.4383,2.4248 3.75,2.4248 0.3117,0 0.5623,-27.1125 0.5569,-60.25 l -0.01,-60.25 -2.3333,-5 c -7.7025,-16.5061 -32.9268,-24.7127 -71.1469,-23.1473 -20.7702,0.8507 -32.2766,2.5234 -84.5,12.2837 -25.025,4.6771 -47.3,8.8189 -49.5,9.204 -3.5945,0.6293 -4.5101,1.4586 -9.0316,8.1799 -10.5241,15.6443 -82.4684,125.9971 -82.4684,126.4953 0,0.2874 1.0125,0.2996 2.25,0.027 1.2375,-0.2725 20.475,-4.5173 42.75,-9.4329 z m 567.7075,8.5702 c -0.5,-1.303 -12.1456,-19.206 -57.685,-88.6801 -12.7984,-19.525 -24.4516,-37.4179 -25.8961,-39.7619 -1.4444,-2.3441 -3.3013,-4.4603 -4.1263,-4.7028 -2.5087,-0.7372 -87.3494,-16.4313 -99.8577,-18.472 -49.7427,-8.1152 -90.1196,-3.2567 -104.002,12.5145 -7.3042,8.2981 -7.1404,6.6207 -7.1404,73.1003 0,32.6271 0.2564,59.3219 0.5698,59.3219 0.3134,0 2.5592,-1.3687 4.9906,-3.0416 23.0057,-15.8283 61.3196,-22.6667 112.2891,-20.0418 43.5595,2.2434 72.7671,6.8071 138.1505,21.5865 47.5435,10.7468 43.3883,9.9512 42.7075,8.177 z" />
    <path
       style="fill:#84634c;stroke-width:7.78495;fill-opacity:1"
       d="m 2676.1682,1757.4541 c -10.3744,-3.8719 -19.1199,-18.5821 -23.5513,-39.6146 -2.1888,-10.3885 -3.0219,-32.4569 -1.6931,-44.8443 2.7112,-25.2701 11.5131,-51.4432 22.6656,-67.397 l 3.6395,-5.2063 -2.4529,-3.0971 c -3.677,-4.6425 -12.1562,-12.3389 -17.5051,-15.8893 -10.317,-6.8477 -24.3701,-12.1135 -40.2679,-15.0889 -9.3025,-1.7411 -42.252,-1.9665 -52.8201,-0.3613 -21.4742,3.2615 -42.6929,8.7239 -66.0845,17.0122 -24.1451,8.5553 -62.4984,24.3259 -61.1387,25.14 2.6229,1.5701 31.8841,14.1395 37.1213,15.9457 l 6.4521,2.2252 18.6905,-6.0548 c 31.692,-10.267 39.758,-11.882 59.2267,-11.8589 11.1088,0.014 14.7845,0.3333 20.6644,1.8001 18.3042,4.5656 27.4544,14.1376 24.391,25.5145 -1.7748,6.5913 -9.2998,11.3583 -24.2375,15.3547 -7.4642,1.997 -9.4225,2.1746 -24.0934,2.1866 -21.0779,0.017 -29.9233,-1.4515 -56.2454,-9.3381 -5.9375,-1.779 -11.2835,-3.2344 -11.8799,-3.2344 -0.5966,0 -9.7422,3.3507 -20.3237,7.446 -24.8855,9.6316 -38.848,14.3911 -61.0037,20.7945 -49.3678,14.2681 -89.0548,21.6505 -139.6256,25.9721 -16.4068,1.4021 -66.1047,1.3836 -76.1593,-0.028 -28.4374,-3.9933 -48.9966,-9.977 -70.8365,-20.617 -23.6001,-11.4974 -38.9725,-24.7555 -47.3867,-40.8694 -7.8725,-15.0766 -9.6652,-34.765 -4.6391,-50.9506 4.9753,-16.0223 18.9197,-29.6347 36.4663,-35.5982 5.6676,-1.9263 7.8771,-2.23 16.3783,-2.2511 6.69,-0.017 11.5264,0.4204 15.1501,1.3688 18.7712,4.9126 32.4399,18.5082 35.2281,35.0397 3.2477,19.2534 -4.2663,32.2196 -17.0072,29.3475 -4.2409,-0.956 -5.9372,-3.3238 -5.9372,-8.2878 0,-4.7801 0.722,-6.33 5.3664,-11.522 4.0283,-4.5032 5.7472,-10.0608 5.0173,-16.223 -0.6169,-5.209 -2.3063,-8.3118 -6.9454,-12.757 -10.6174,-10.1731 -28.3796,-13.3687 -44.9901,-8.0939 -18.9017,6.0024 -29.7595,22.9625 -29.8927,46.6931 -0.1651,29.3912 17.6424,52.1661 54.9942,70.3347 17.6785,8.599 38.4531,14.705 60.6719,17.8324 11.5438,1.6248 51.0003,1.3859 67.1514,-0.4066 59.4339,-6.5961 120.661,-22.6512 192.7268,-50.5374 8.4032,-3.2516 15.2771,-6.1395 15.2754,-6.4176 0,-0.278 -3.1829,-1.7549 -7.0694,-3.2817 -3.8867,-1.5269 -13.0321,-5.7803 -20.3231,-9.4521 l -13.2565,-6.6759 -11.407,4.7588 c -29.8955,12.4715 -46.1755,17.824 -66.6841,21.924 -20.7166,4.1416 -37.7742,5.0372 -54.407,2.8569 -18.7961,-2.4639 -33.6574,-8.9525 -43.9434,-19.1858 -4.8937,-4.8686 -6.6079,-7.2278 -8.0294,-11.0496 -3.7706,-10.1387 -2.8412,-20.9937 2.5115,-29.3352 6.6501,-10.3633 21.4592,-17.3444 41.3818,-19.5079 29.0179,-3.1512 72.0791,7.4783 120.4524,29.733 l 12.5158,5.7582 8.776,-4.1083 c 34.5474,-16.1731 93.2252,-30.8636 138.0049,-34.5508 15.0284,-1.2375 37.4098,-1.0686 48.344,0.3648 28.5015,3.7362 53.4602,15.6921 66.0761,31.6524 l 3.0747,3.8899 3.5705,-4.5003 c 10.6667,-13.4447 32.7087,-25.0054 56.9644,-29.8771 11.1788,-2.2453 36.9016,-3.0117 55.1656,-1.6437 45.9456,3.4416 98.9513,16.5732 138.1171,34.217 l 10.1158,4.5571 10.4969,-4.9638 c 23.7632,-11.2371 54.5724,-22.2405 74.609,-26.6463 15.6815,-3.4483 21.9077,-4.1522 36.4419,-4.1204 16.9185,0.037 26.6658,1.8134 36.7799,6.7023 8.409,4.0647 13.3802,8.4927 16.8819,15.0378 2.435,4.5513 2.8098,6.0768 3.1038,12.633 0.415,9.2551 -1.003,14.6132 -5.5464,20.9578 -4.2784,5.9747 -11.5547,11.4202 -21.7381,16.2684 -14.2328,6.7762 -30.4971,9.5652 -50.5631,8.6704 -28.8625,-1.287 -50.6185,-6.6731 -86.31,-21.3671 l -22.6574,-9.328 -3.0226,1.9081 c -5.3112,3.3526 -22.2828,11.5631 -29.688,14.3621 -3.941,1.4897 -7.1654,2.9628 -7.1654,3.2734 0,1.2658 40.723,16.5424 67.1512,25.1908 65.815,21.5375 119.932,32.2001 169.9828,33.4916 27.0495,0.6981 43.6838,-1.0135 65.737,-6.7636 40.598,-10.5854 72.5196,-32.7596 82.9005,-57.5864 8.9926,-21.5064 5.3358,-47.9912 -8.5335,-61.8044 -7.5462,-7.5156 -16.5525,-11.3198 -29.4653,-12.4459 -14.5417,-1.268 -31.1857,6.294 -36.8724,16.7528 -2.1056,3.8723 -2.3076,4.9199 -2.0473,10.6156 l 0.2886,6.3193 5.1182,6.3621 c 4.5365,5.6389 5.1183,6.7711 5.1183,9.9602 0,4.3846 -1.2383,7.3097 -3.5709,8.4349 -5.5707,2.6871 -11.2171,1.5787 -15.3209,-3.008 -3.7695,-4.2128 -4.8568,-8.0253 -4.8568,-17.0295 0,-18.1975 8.1809,-31.1314 24.7072,-39.0615 19.2466,-9.2356 40.2876,-7.9039 57.5504,3.6422 11.4115,7.6325 19.6975,19.2503 23.0166,32.2712 2.0042,7.8631 2.0034,24.0804 0,31.9379 -5.6046,21.9632 -21.9172,39.9241 -48.6098,53.5213 -32.2688,16.4376 -61.8239,23.5409 -101.7211,24.4473 -79.4116,1.8042 -162.3669,-13.9888 -249.343,-47.4699 l -21.2918,-8.1963 -6.9608,1.856 c -36.937,9.8484 -42.2083,10.7809 -61.8284,10.9375 -16.654,0.1324 -24.2633,-1.0474 -34.6808,-5.3799 -10.8823,-4.5255 -15.0456,-10.6375 -13.178,-19.3459 2.5002,-11.6586 17.8448,-19.3003 40.8979,-20.3673 17.4787,-0.809 34.3304,2.378 61.8284,11.6927 9.909,3.3567 18.9375,6.0938 20.0635,6.0827 1.1261,-0.014 4.9954,-1.0634 8.5987,-2.3381 8.2575,-2.9215 34.8041,-14.8854 34.8041,-15.6853 0,-1.6204 -42.9252,-18.9746 -65.9576,-26.6658 -57.4841,-19.1961 -103.4872,-21.9311 -137.5885,-8.1804 -12.4172,5.0071 -25.4693,14.5473 -33.123,24.2112 l -2.5191,3.1805 2.9162,4.0593 c 6.0607,8.4362 14.4406,28.4735 18.3761,43.9403 3.8805,15.25 4.5255,21.2459 4.5367,42.1745 0.014,17.6823 -0.2118,21.1681 -1.8648,29.3719 -3.8734,19.2242 -10.6821,31.487 -20.1709,36.3278 -4.1543,2.1194 -12.1133,2.6847 -16.2196,1.1524 z m 13.0797,-20.1497 c 6.0354,-3.6799 10.8308,-14.4745 12.4485,-28.0215 3.2982,-27.6197 1.1202,-52.9401 -6.5679,-76.3531 -3.0994,-9.4387 -8.3648,-21.2566 -10.936,-24.5458 -1.7834,-2.2814 -3.003,-0.8934 -7.7332,8.8013 -7.6828,15.7462 -13.1987,36.0514 -14.8274,54.5817 -1.0489,11.9329 -0.028,33.5712 2.0688,43.8732 2.2421,11.0132 6.8052,19.3399 12.0022,21.9008 3.7972,1.8713 10.2734,1.7582 13.545,-0.2366 z m -109.5056,-92.1707 c 13.496,-3.0499 19.0477,-8.836 15.9372,-16.61 -2.2874,-5.7168 -7.7428,-8.4469 -20.8508,-10.4349 -13.9345,-2.1132 -24.2038,-1.2574 -38.7058,3.2257 -7.587,2.3455 -34.9527,13.0061 -34.9787,13.6262 -0.021,0.5059 2.5308,1.5698 12.6751,5.2841 8.2493,3.0205 17.568,5.096 27.6397,6.1559 10.1298,1.0659 31.0657,0.384 38.2833,-1.247 z m 242.6506,1.2251 c 4.8671,-0.4616 11.5003,-1.3891 14.7405,-2.0612 5.814,-1.2061 25.9546,-8.5189 25.9546,-9.4239 0,-0.773 -35.132,-13.7545 -42.1743,-15.5836 -12.6829,-3.2942 -32.3702,-2.8662 -42.5,0.9239 -9.1226,3.4132 -12.9603,11.4383 -8.1843,17.1143 2.8011,3.3288 8.4776,5.9484 16.6992,7.7063 10.5684,2.2595 21.3539,2.6623 35.4643,1.3242 z m -504.7045,-17.1987 c 22.5972,-1.9865 33.9139,-4.9327 64.4304,-16.7733 13.4187,-5.2065 24.6921,-9.7609 25.052,-10.1207 1.4126,-1.4127 -30.5416,-15.256 -51.8121,-22.4462 -30.3632,-10.2638 -48.3925,-13.2774 -67.6969,-11.3154 -26.5793,2.7015 -39.609,11.0314 -41.7558,26.6944 -0.3388,2.4708 -0.023,5.5433 0.935,9.0799 3.5598,13.151 17.6029,21.3777 43.0042,25.1927 4.2961,0.6452 18.808,0.483 27.8432,-0.3114 z m 759.8774,0 c 14.8268,-1.9246 26.0636,-6.3646 33.2085,-13.1219 5.4655,-5.1691 7.8163,-10.6646 7.8163,-18.2726 0,-17.6336 -13.5225,-26.8269 -43.1564,-29.3401 -12.8141,-1.0867 -23.8533,-0.2053 -38.5368,3.0769 -10.5427,2.3565 -33.3898,9.7013 -46.877,15.0696 -12.3549,4.9177 -32.9124,14.9368 -32.1645,15.676 1.3738,1.3578 49.9446,19.7169 57.0071,21.548 19.8873,5.156 46.6608,7.4463 62.7028,5.3641 z"
       id="path31112" />
  </g>
</svg>
