<?xml version="1.0" encoding="UTF-8" standalone="no"?>
<!-- Created with Inkscape (http://www.inkscape.org/) -->

<svg
   width="13.2287mm"
   height="13.14898mm"
   viewBox="0 0 13.2287 13.14898"
   version="1.1"
   id="svg947"
   xmlns="http://www.w3.org/2000/svg"
   xmlns:svg="http://www.w3.org/2000/svg">
  <defs
     id="defs944">
    <linearGradient
       id="linearGradient24522"
       gradientTransform="matrix(0.00672842,0,0,4.8207612e-4,-762.54509,-682.30966)">
      <stop
         style="stop-color:#735342;stop-opacity:1;"
         offset="0"
         id="stop24520" />
    </linearGradient>
  </defs>
  <g
     id="layer1"
     transform="translate(-98.38565,-141.92551)">
    <path
       id="path25370"
       style="display:inline;fill:url(#linearGradient24522);fill-opacity:1;fill-rule:nonzero;stroke:none;stroke-width:0.0352777"
       d="m 105,141.88542 c -3.65297,0 -6.61432,2.96149 -6.61432,6.61459 0,3.65204 2.96135,6.61458 6.61432,6.61458 3.65297,0 6.61432,-2.96254 6.61432,-6.61458 0,-3.6531 -2.96135,-6.61459 -6.61432,-6.61459 z m 3.03028,3.8018 c 0.0308,0 0.0611,0.003 0.0869,0.0132 0.0471,0.0185 0.0773,0.0381 0.1026,0.11245 0.009,0.0273 0.0143,0.0833 0.0138,0.13996 0,0.0413 -0.006,0.0786 -0.009,0.13838 -0.0376,0.60748 -1.16409,5.14191 -1.16409,5.14191 0,0 -0.0675,0.26512 -0.30906,0.27411 -0.088,0.003 -0.19492,-0.0159 -0.32269,-0.12435 -0.25447,-0.21855 -0.84402,-0.63712 -1.39189,-1.01547 -0.16539,0.13837 -0.49596,0.42465 -0.83757,0.76649 -0.48416,0.48419 -0.42185,0 -0.42185,0 l 0.1487,-1.58062 h 0.004 c 0.007,-0.0159 0.018,-0.0304 0.018,-0.0304 0,0 2.85253,-2.53498 2.92839,-2.80141 0.006,-0.0212 -0.0161,-0.0307 -0.0461,-0.0212 -0.18942,0.0693 -3.47377,2.1426 -3.83622,2.37226 -0.0212,0.0159 -0.0806,0.005 -0.0806,0.005 l -1.59329,-0.51938 c 0,0 -0.19021,-0.0773 -0.12917,-0.25188 0.0127,-0.0362 0.0381,-0.0677 0.11408,-0.12039 0.3532,-0.24633 6.53484,-2.46856 6.53484,-2.46856 0,0 0.0983,-0.0325 0.1909,-0.0325 z" />
  </g>
</svg>
