<?xml version="1.0" encoding="UTF-8" standalone="no"?>
<!-- Created with Inkscape (http://www.inkscape.org/) -->

<svg
   width="13.2287mm"
   height="13.14898mm"
   viewBox="0 0 13.2287 13.14898"
   version="1.1"
   id="svg947"
   xmlns="http://www.w3.org/2000/svg"
   xmlns:svg="http://www.w3.org/2000/svg">
  <defs
     id="defs944">
    <linearGradient
       id="linearGradient24522"
       gradientTransform="matrix(0.09611431,0,0,0.00688637,-704.3506,-767.03823)">
      <stop
         style="stop-color:#735342;stop-opacity:1;"
         offset="0"
         id="stop24520" />
    </linearGradient>
    <linearGradient
       id="linearGradient9616"
       gradientTransform="matrix(1.285418e-5,0,0,4.5379872e-4,328.72473,25148.036)">
      <stop
         style="stop-color:#8c7662;stop-opacity:1;"
         offset="0"
         id="stop9614" />
    </linearGradient>
  </defs>
  <g
     id="layer1"
     transform="translate(-98.38565,-141.92551)"
     style="fill:#8c7662;fill-opacity:1">
    <path
       id="path25366"
       style="display:inline;fill:#8c7662;fill-opacity:1;fill-rule:nonzero;stroke:none;stroke-width:0.0352777"
       d="m 105,141.88568 c -3.65297,0 -6.614345,2.96122 -6.614345,6.61432 0,3.65257 2.961375,6.61432 6.614345,6.61432 3.65297,0 6.61434,-2.96175 6.61434,-6.61432 0,-3.6531 -2.96137,-6.61432 -6.61434,-6.61432 z m 0.22923,2.35347 c 0.0114,0 0.0271,0 0.0492,0 0.43929,0 0.87865,0 1.31784,0 0.0103,0 0.0209,0 0.0311,0 0.0449,0 0.0458,0 0.0455,0.0463 0,0.10186 0.0418,0.34078 0.0456,0.35957 0.18991,0.96335 1.31236,1.55204 1.65846,1.60443 0.0952,0.0159 0.19103,0.0272 0.28794,0.0238 0.0401,0 0.0414,0 0.0414,0.0394 0,0.0897 0.0177,1.01044 0.0172,1.34752 0,0.077 -0.0106,0.081 -0.0884,0.0812 -0.24686,0 -0.48922,-0.0331 -0.72919,-0.0878 -0.41236,-0.0942 -0.79301,-0.26194 -1.14618,-0.49398 -0.0183,-0.0106 -0.0379,-0.0381 -0.0574,-0.0302 -0.0249,0.0132 -0.0119,0.0436 -0.0119,0.0661 0,0.9488 0.003,1.89733 -0.003,2.84612 -0.004,0.66331 -0.21477,1.25678 -0.64895,1.76213 -0.46125,0.53684 -1.04719,0.84852 -1.75048,0.93424 -0.54208,0.0664 -1.05646,-0.0315 -1.54464,-0.27278 -0.079,-0.0389 -0.15452,-0.0847 -0.22505,-0.13759 -0.0222,-0.0185 -0.0445,-0.0394 -0.0668,-0.0593 -0.0531,-0.0238 -0.0955,-0.0614 -0.1398,-0.0966 -0.43588,-0.34528 -0.74303,-0.78105 -0.91208,-1.3118 -0.0588,-0.18468 -0.0954,-0.37386 -0.11324,-0.567 -0.013,-0.13997 -0.0145,-0.27993 -0.005,-0.41937 0.0209,-0.32146 0.0969,-0.62997 0.22982,-0.92445 0.13875,-0.30745 0.32792,-0.58023 0.56869,-0.81598 0.28036,-0.27463 0.60521,-0.48021 0.97523,-0.6133 0.23194,-0.0833 0.47043,-0.13414 0.71668,-0.15187 0.17825,-0.0132 0.35552,-0.008 0.53268,0.0132 0.0238,0 0.0379,0.008 0.0373,0.0362 -0.003,0.0984 -0.003,0.19711 -0.003,0.29554 0.003,0 0.0146,0.7485 0.0146,1.09034 0,0.0132 0,0.0238 0,0.0365 -0.003,0.0341 -0.019,0.0458 -0.0515,0.0362 -0.0936,-0.0272 -0.18968,-0.0386 -0.2862,-0.0439 -0.14994,-0.008 -0.29774,0.0132 -0.43794,0.0654 -0.47006,0.1733 -0.75531,0.51011 -0.81489,1.00594 -0.0587,0.48869 0.13406,0.88001 0.54073,1.16152 0.0341,0.0238 0.0692,0.0455 0.10088,0.0722 0.008,0.005 0.0154,0.0159 0.023,0.0212 0.0945,0.0376 0.18883,0.0751 0.28938,0.0953 0.31906,0.063 0.61957,0.0159 0.8964,-0.15663 0.31954,-0.19685 0.50835,-0.48525 0.5746,-0.85381 0.0124,-0.0698 0.0145,-0.14076 0.0145,-0.21167 0,-1.905 0,-3.81 0,-5.715 0,-0.0664 -0.007,-0.0773 0.0268,-0.078 z" />
  </g>
</svg>
