<?xml version="1.0" encoding="UTF-8" standalone="no"?>
<!-- Created with Inkscape (http://www.inkscape.org/) -->

<svg
   width="13.2287mm"
   height="13.14898mm"
   viewBox="0 0 13.2287 13.14898"
   version="1.1"
   id="svg947"
   xmlns="http://www.w3.org/2000/svg"
   xmlns:svg="http://www.w3.org/2000/svg">
  <defs
     id="defs944">
    <linearGradient
       id="linearGradient24522"
       gradientTransform="matrix(5.1892025,0,0,0.37179437,216.39626,-5594.7577)">
      <stop
         style="stop-color:#735342;stop-opacity:1;"
         offset="0"
         id="stop24520" />
    </linearGradient>
    <linearGradient
       id="linearGradient9616"
       gradientTransform="matrix(1.285418e-5,0,0,4.5379872e-4,328.72473,25148.036)">
      <stop
         style="stop-color:#8c7662;stop-opacity:1;"
         offset="0"
         id="stop9614" />
    </linearGradient>
  </defs>
  <g
     id="layer1"
     transform="translate(-98.38565,-141.92551)"
     style="fill:#8c7662;fill-opacity:1">
    <path
       id="path25360"
       style="display:inline;fill:#8c7662;fill-opacity:1;fill-rule:evenodd;stroke:none;stroke-width:0.0352777"
       d="m 105.00001,141.88568 c -3.65307,0 -6.61434,2.96122 -6.61434,6.61432 0,3.65257 2.96127,6.61432 6.61434,6.61432 3.65305,0 6.61432,-2.96175 6.61432,-6.61432 0,-3.6531 -2.96127,-6.61432 -6.61432,-6.61432 z m 1.89802,3.4663 c 0.50562,0 0.96126,0.21352 1.28267,0.55484 0.39981,-0.0788 0.77515,-0.2249 1.11517,-0.42625 -0.13131,0.41011 -0.40955,0.75433 -0.77211,0.97155 0.35473,-0.0423 0.69369,-0.13679 1.00825,-0.27649 -0.23519,0.3519 -0.53308,0.66146 -0.87604,0.90938 0.003,0.0754 0.005,0.15107 0.005,0.22727 0,2.32066 -1.76678,4.99692 -4.9975,4.99692 -0.99166,0 -1.91474,-0.29077 -2.69182,-0.78898 0.13719,0.0159 0.27731,0.0238 0.41844,0.0238 0.82312,0 1.58054,-0.28072 2.18122,-0.75195 -0.76824,-0.0159 -1.41695,-0.52202 -1.64036,-1.21973 0.10681,0.0212 0.21661,0.0317 0.33028,0.0317 0.15973,0 0.31551,-0.0212 0.46249,-0.0619 -0.80351,-0.16087 -1.40914,-0.87127 -1.40914,-1.72191 0,-0.008 5e-5,-0.0159 0.003,-0.0212 0.23614,0.13202 0.50755,0.21113 0.79566,0.21986 -0.47234,-0.31485 -0.78201,-0.85248 -0.78201,-1.46182 0,-0.32173 0.0872,-0.62362 0.23813,-0.88291 0.86622,1.06256 2.15974,1.76159 3.61979,1.83515 -0.0304,-0.12859 -0.0451,-0.26273 -0.0451,-0.40058 0,-0.9697 0.78581,-1.75604 1.75591,-1.75604 z" />
  </g>
</svg>
