<?xml version="1.0" encoding="UTF-8" standalone="no"?>
<!-- Created with Inkscape (http://www.inkscape.org/) -->

<svg
   width="13.2287mm"
   height="13.14898mm"
   viewBox="0 0 13.2287 13.14898"
   version="1.1"
   id="svg947"
   xmlns="http://www.w3.org/2000/svg"
   xmlns:svg="http://www.w3.org/2000/svg">
  <defs
     id="defs944">
    <linearGradient
       id="linearGradient24522"
       gradientTransform="matrix(19.612734,0,0,1.4052071,2662.1287,-19266.77)">
      <stop
         style="stop-color:#735342;stop-opacity:1;"
         offset="0"
         id="stop24520" />
    </linearGradient>
    <linearGradient
       id="linearGradient9616"
       gradientTransform="matrix(1.285418e-5,0,0,4.5379872e-4,328.72473,25148.036)">
      <stop
         style="stop-color:#8c7662;stop-opacity:1;"
         offset="0"
         id="stop9614" />
    </linearGradient>
  </defs>
  <g
     id="layer1"
     transform="translate(-98.38565,-141.92551)"
     style="fill:#8c7662;fill-opacity:1">
    <path
       id="path25362"
       style="display:inline;fill:#8c7662;fill-opacity:1;fill-rule:nonzero;stroke:none;stroke-width:0.0352777"
       d="m 105.00001,141.88568 c -3.65297,0 -6.61434,2.96122 -6.61434,6.61432 0,3.65257 2.96137,6.61432 6.61434,6.61432 3.65297,0 6.61432,-2.96175 6.61432,-6.61432 0,-3.6531 -2.96135,-6.61432 -6.61432,-6.61432 z m 0,3.52742 c 0,0 2.75783,0 3.44554,0.18442 0.37952,0.10133 0.67828,0.40031 0.7797,0.77973 0.18431,0.68765 0.18431,2.12275 0.18431,2.12275 0,0 0,1.43483 -0.18431,2.12275 -0.10142,0.37915 -0.40018,0.67813 -0.7797,0.77973 -0.68771,0.18415 -3.44554,0.18415 -3.44554,0.18415 0,0 -2.75775,0 -3.44556,-0.18415 -0.37942,-0.1016 -0.67824,-0.40058 -0.77957,-0.77973 -0.18431,-0.68792 -0.18444,-2.12275 -0.18444,-2.12275 0,0 0,-1.4351 0.18444,-2.12275 0.10133,-0.37942 0.40015,-0.6784 0.77957,-0.77973 0.68781,-0.18442 3.44556,-0.18442 3.44556,-0.18442 z m -0.88194,1.76398 v 2.64557 L 106.40942,148.5 Z" />
  </g>
</svg>
